<svg viewBox="0 0 20 20" xmlns="http://www.w3.org/2000/svg" xmlns:xlink="http://www.w3.org/1999/xlink">
    <title>cart icon</title>
    <path fill="currentColor" d="M5.67307071,5 L18.0007998,5 C18.5530845,5 19.0007998,5.44771525 19.0007998,6 C19.0007998,6.15081711 18.9666865,6.29968083 18.9010134,6.43544846 L16.4824295,11.4354485 C16.3154352,11.78068 15.9657154,12 15.5822158,12 L6.83996435,12 L7.17336254,14 L16.0644531,14 C16.6167379,14 17.0644531,14.4477153 17.0644531,15 C17.0644531,15.5522847 16.6167379,16 16.0644531,16 L6.32626254,16 C5.83743532,16 5.42025172,15.6466038 5.33987381,15.1644301 L3.31207436,3 L2.09472656,3 C1.54244181,3 1.09472656,2.55228475 1.09472656,2 C1.09472656,1.44771525 1.54244181,1 2.09472656,1 L4.15917435,1 C4.64800157,1 5.06518517,1.35339623 5.14556309,1.83556989 L5.67307071,5 Z M15.5,20 C14.6715729,20 14,19.3284271 14,18.5 C14,17.6715729 14.6715729,17 15.5,17 C16.3284271,17 17,17.6715729 17,18.5 C17,19.3284271 16.3284271,20 15.5,20 Z M6.5,20 C5.67157288,20 5,19.3284271 5,18.5 C5,17.6715729 5.67157288,17 6.5,17 C7.32842712,17 8,17.6715729 8,18.5 C8,19.3284271 7.32842712,20 6.5,20 Z"></path>
</svg>