<svg viewBox="0 0 20 20" xmlns="http://www.w3.org/2000/svg" xmlns:xlink="http://www.w3.org/1999/xlink">
    <title>channel</title>
    <path fill="currentColor" d="M12.4142136,5 L18,5 C19.1045695,5 20,5.8954305 20,7 L20,18 C20,19.1045695 19.1045695,20 18,20 L2,20 C0.8954305,20 1.3527075e-16,19.1045695 0,18 L0,7 C-1.3527075e-16,5.8954305 0.8954305,5 2,5 L7.58578644,5 L5.29289322,2.70710678 C4.90236893,2.31658249 4.90236893,1.68341751 5.29289322,1.29289322 C5.68341751,0.902368927 6.31658249,0.902368927 6.70710678,1.29289322 L10,4.58578644 L13.2928932,1.29289322 C13.6834175,0.902368927 14.3165825,0.902368927 14.7071068,1.29289322 C15.0976311,1.68341751 15.0976311,2.31658249 14.7071068,2.70710678 L12.4142136,5 Z M3,7 C2.44771525,7 2,7.44771525 2,8 L2,17 C2,17.5522847 2.44771525,18 3,18 L15,18 C15.5522847,18 16,17.5522847 16,17 L16,8 C16,7.44771525 15.5522847,7 15,7 L3,7 Z M18,10 C18.5522847,10 19,9.55228475 19,9 C19,8.44771525 18.5522847,8 18,8 C17.4477153,8 17,8.44771525 17,9 C17,9.55228475 17.4477153,10 18,10 Z M18,13 C18.5522847,13 19,12.5522847 19,12 C19,11.4477153 18.5522847,11 18,11 C17.4477153,11 17,11.4477153 17,12 C17,12.5522847 17.4477153,13 18,13 Z" id="path-1"></path>
</svg>