<svg xmlns="http://www.w3.org/2000/svg" xmlns:xlink="http://www.w3.org/1999/xlink" viewBox="0 0 113.4 113.4"><style></style><g id="Facebook_1_"><defs><path id="SVGID_1_" d="M0 0h113.4v113.4H0z"/></defs><clipPath id="SVGID_2_"><use xlink:href="#SVGID_1_" overflow="visible"/></clipPath><g clip-path="url(#SVGID_2_)"><defs><path id="SVGID_3_" d="M0 0h113.4v113.4H0z"/></defs><clipPath id="SVGID_4_"><use xlink:href="#SVGID_3_" overflow="visible"/></clipPath><path d="M56.7 0C25.4 0 0 25.4 0 56.7c0 31.3 25.4 56.7 56.7 56.7 31.3 0 56.7-25.4 56.7-56.7C113.4 25.4 88 0 56.7 0m17.4 31.8h-7c-5.5 0-6.5 2.6-6.5 6.4v8.4h13l-1.7 13.2H60.6v33.7H47V59.7H35.7V46.6H47v-9.7c0-11.2 6.9-17.4 16.9-17.4 4.8 0 8.9.4 10.1.5v11.8z" clip-path="url(#SVGID_4_)" fill="#3b5999"/></g></g></svg>
