<svg xmlns="http://www.w3.org/2000/svg" xmlns:xlink="http://www.w3.org/1999/xlink" width="112.4" height="112.4" viewBox="0 0 112.4 112.4"><style>.st2,.st3{clip-path:url(#SVGID_4_);fill:#0077b5}.st3{fill:#fff}</style><g id="LinkedIn_1_"><defs><path id="SVGID_1_" d="M0 0h112.4v112.4H0z"/></defs><clipPath id="SVGID_2_"><use xlink:href="#SVGID_1_" overflow="visible"/></clipPath><path clip-path="url(#SVGID_2_)" fill="#0077b5" d="M37 49.8h8.4v25.1H37z"/><g clip-path="url(#SVGID_2_)"><defs><path id="SVGID_3_" d="M0 0h112.4v112.4H0z"/></defs><clipPath id="SVGID_4_"><use xlink:href="#SVGID_3_" overflow="visible"/></clipPath><path class="st2" d="M65.8 49.2c-4.4 0-6.4 2.4-7.5 4.1v.1h-.1s0-.1.1-.1v-3.5h-8.4s.1 2.4 0 25.1h8.4v-14c0-.7 0-1.5.3-2 .6-1.5 2-3 4.3-3 3 0 4.2 2.3 4.2 5.7V75h8.4V60.5c-.1-7.7-4.2-11.3-9.7-11.3M41.2 37.7c-2.9 0-4.7 1.9-4.7 4.3s1.8 4.3 4.6 4.3c2.9 0 4.7-2 4.7-4.3 0-2.4-1.7-4.3-4.6-4.3"/><path class="st2" d="M56.2 0C25.2 0 0 25.2 0 56.2c0 31 25.2 56.2 56.2 56.2 31 0 56.2-25.2 56.2-56.2 0-31-25.2-56.2-56.2-56.2M84 73.6C84 79.3 79.3 84 73.6 84H38.8c-5.8 0-10.4-4.7-10.4-10.4V38.8c0-5.8 4.7-10.4 10.4-10.4h34.7c5.8 0 10.4 4.7 10.4 10.4v34.8z"/><path class="st3" d="M58.3 53.5v-.1s-.1 0 0 .1z"/><path class="st3" d="M73.6 28.4H38.8c-5.8 0-10.4 4.7-10.4 10.4v34.7c0 5.8 4.7 10.4 10.4 10.4h34.8C79.3 84 84 79.3 84 73.6V38.8c0-5.7-4.7-10.4-10.4-10.4M45.3 74.9H37V49.8h8.4v25.1zm-4.2-28.5c-2.9 0-4.7-2-4.7-4.3 0-2.5 1.9-4.3 4.7-4.3 2.9 0 4.6 1.9 4.7 4.3.1 2.4-1.7 4.3-4.7 4.3m34.3 28.5H67V61.5c0-3.4-1.2-5.7-4.2-5.7-2.3 0-3.7 1.6-4.3 3-.2.5-.3 1.3-.3 2v14h-8.4c.1-22.8 0-25.1 0-25.1h8.4v3.5c1.1-1.7 3.1-4.1 7.5-4.1 5.5 0 9.6 3.6 9.6 11.3v14.5z"/></g></g></svg>