<svg viewBox="0 0 20 20" xmlns="http://www.w3.org/2000/svg" xmlns:xlink="http://www.w3.org/1999/xlink">
    <title>lock icon</title>
    <path fill="currentColor" d="M4,10.1 C3.44771525,10.1 3,10.5477153 3,11.1 L3,17 C3,17.5522847 3.44771525,18 4,18 L16,18 C16.5522847,18 17,17.5522847 17,17 L17,11.1 C17,10.5477153 16.5522847,10.1 16,10.1 L4,10.1 Z M4.55555556,8.1 L4.55555556,5.5 C4.55555556,2.4651955 6.99031654,4.4408921e-16 10,0 C13.0096835,-8.8817842e-16 15.4444444,2.4651955 15.4444444,5.5 L15.4444444,8.1 L16,8.1 C17.6568542,8.1 19,9.44314575 19,11.1 L19,17 C19,18.6568542 17.6568542,20 16,20 L4,20 C2.34314575,20 1,18.6568542 1,17 L1,11.1 C1,9.44314575 2.34314575,8.1 4,8.1 L4.55555556,8.1 Z M6.55555556,8.1 L13.4444444,8.1 L13.4444444,5.5 C13.4444444,3.56424175 11.8995143,2 10,2 C8.10048568,2 6.55555556,3.56424175 6.55555556,5.5 L6.55555556,8.1 Z M9,14.7324356 L9,16 C9,16.5522847 9.44771525,17 10,17 C10.5522847,17 11,16.5522847 11,16 L11,14.7324356 C11.5978014,14.3866262 12,13.7402824 12,13 C12,11.8954305 11.1045695,11 10,11 C8.8954305,11 8,11.8954305 8,13 C8,13.7402824 8.40219863,14.3866262 9,14.7324356 Z" ></path>
</svg>