<svg viewBox="0 0 100 100" version="1.1" xmlns="http://www.w3.org/2000/svg" xmlns:xlink="http://www.w3.org/1999/xlink">
    <title>large play icon</title>
        <path fill="currentColor" d="M50,94 C74.300529,94 94,74.300529 94,50 C94,25.699471 74.300529,6 50,6 C25.699471,6 6,25.699471 6,50 C6,74.300529 25.699471,94 50,94 Z M50,100 C22.3857625,100 0,77.6142375 0,50 C0,22.3857625 22.3857625,0 50,0 C77.6142375,0 100,22.3857625 100,50 C100,77.6142375 77.6142375,100 50,100 Z M36.5099976,26.3626637 L70.9217623,48.4978065 C72.3594126,49.4225657 72.3594126,51.5774343 70.9217623,52.5021935 L36.5099976,74.6373363 C34.9820051,75.6202075 33,74.4896205 33,72.6351428 L33,28.3648572 C33,26.5103795 34.9820051,25.3797925 36.5099976,26.3626637 Z"></path>
</svg>