<svg viewBox="0 0 100 100" version="1.1" xmlns="http://www.w3.org/2000/svg" xmlns:xlink="http://www.w3.org/1999/xlink">
    <title>large play icon</title>
    <path fill="currentColor" d="M50,94 C74.300529,94 94,74.300529 94,50 C94,25.699471 74.300529,6 50,6 C25.699471,6 6,25.699471 6,50 C6,74.300529 25.699471,94 50,94 Z M50,100 C22.3857625,100 0,77.6142375 0,50 C0,22.3857625 22.3857625,0 50,0 C77.6142375,0 100,22.3857625 100,50 C100,77.6142375 77.6142375,100 50,100 Z M37.7001599,31.7050563 L37.7001599,68.2933447 L68.2237591,49.9992005 L37.7001599,31.7050563 Z M36.0006195,24.3832805 L75.222407,47.8743585 C76.8610098,48.8557657 76.8610098,51.1426353 75.222407,52.1240426 L36.0006195,75.6151206 C34.2590467,76.6581996 32,75.4583561 32,73.4902785 L32,26.5081225 C32,24.5400449 34.2590467,23.3402014 36.0006195,24.3832805 Z"></path>
</svg>