<svg viewBox="0 0 20 20" xmlns="http://www.w3.org/2000/svg" xmlns:xlink="http://www.w3.org/1999/xlink">
    <title>add to playlist icon</title>
    <path fill="currentColor" d="M13,11 L11,11 C10.4477153,11 10,11.4477153 10,12 C10,12.5522847 10.4477153,13 11,13 L13,13 L13,15 C13,15.5522847 13.4477153,16 14,16 C14.5522847,16 15,15.5522847 15,15 L15,13 L17,13 C17.5522847,13 18,12.5522847 18,12 C18,11.4477153 17.5522847,11 17,11 L15,11 L15,9 C15,8.44771525 14.5522847,8 14,8 C13.4477153,8 13,8.44771525 13,9 L13,11 Z M1,2 L17,2 C17.5522847,2 18,2.44771525 18,3 C18,3.55228475 17.5522847,4 17,4 L1,4 C0.44771525,4 6.76353751e-17,3.55228475 0,3 C-6.76353751e-17,2.44771525 0.44771525,2 1,2 Z M1,6 L6,6 C6.55228475,6 7,6.44771525 7,7 C7,7.55228475 6.55228475,8 6,8 L1,8 C0.44771525,8 6.76353751e-17,7.55228475 0,7 C-6.76353751e-17,6.44771525 0.44771525,6 1,6 Z M1,10 L5,10 C5.55228475,10 6,10.4477153 6,11 C6,11.5522847 5.55228475,12 5,12 L1,12 C0.44771525,12 -4.33869274e-17,11.5522847 -1.11022302e-16,11 C-2.8967998e-16,10.4477153 0.44771525,10 1,10 Z M1,14 L5,14 C5.55228475,14 6,14.4477153 6,15 C6,15.5522847 5.55228475,16 5,16 L1,16 C0.44771525,16 -4.33869274e-17,15.5522847 -1.11022302e-16,15 C-2.8967998e-16,14.4477153 0.44771525,14 1,14 Z M14,18 C10.6862915,18 8,15.3137085 8,12 C8,8.6862915 10.6862915,6 14,6 C17.3137085,6 20,8.6862915 20,12 C20,15.3137085 17.3137085,18 14,18 Z"></path>
</svg>