<svg viewBox="0 0 20 20" xmlns="http://www.w3.org/2000/svg" xmlns:xlink="http://www.w3.org/1999/xlink">
    <title>playlist icon</title>
    <path fill="currentColor" d="M1,2 L17,2 C17.5522847,2 18,2.44771525 18,3 C18,3.55228475 17.5522847,4 17,4 L1,4 C0.44771525,4 6.76353751e-17,3.55228475 0,3 C-6.76353751e-17,2.44771525 0.44771525,2 1,2 Z M1,6 L6,6 C6.55228475,6 7,6.44771525 7,7 C7,7.55228475 6.55228475,8 6,8 L1,8 C0.44771525,8 6.76353751e-17,7.55228475 0,7 C-6.76353751e-17,6.44771525 0.44771525,6 1,6 Z M1,10 L5,10 C5.55228475,10 6,10.4477153 6,11 C6,11.5522847 5.55228475,12 5,12 L1,12 C0.44771525,12 -4.33869274e-17,11.5522847 -1.11022302e-16,11 C-2.8967998e-16,10.4477153 0.44771525,10 1,10 Z M1,14 L5,14 C5.55228475,14 6,14.4477153 6,15 C6,15.5522847 5.55228475,16 5,16 L1,16 C0.44771525,16 -4.33869274e-17,15.5522847 -1.11022302e-16,15 C-2.8967998e-16,14.4477153 0.44771525,14 1,14 Z M14,18 C10.6862915,18 8,15.3137085 8,12 C8,8.6862915 10.6862915,6 14,6 C17.3137085,6 20,8.6862915 20,12 C20,15.3137085 17.3137085,18 14,18 Z M12.9629735,9.09435475 C12.5470287,8.8427754 12,9.12376407 12,9.58899906 L12,14.1252867 C12,14.5905216 12.5470287,14.8715103 12.9629735,14.619931 L16.7129735,12.3517872 C17.0956755,12.1203143 17.0956755,11.5939714 16.7129735,11.3624986 L12.9629735,9.09435475 Z"></path>
</svg>