<svg viewBox="0 0 20 20" xmlns="http://www.w3.org/2000/svg" xmlns:xlink="http://www.w3.org/1999/xlink">
    <title>play icon</title>
    <path fill="currentColor" d="M10,18 C14.418278,18 18,14.418278 18,10 C18,5.581722 14.418278,2 10,2 C5.581722,2 2,5.581722 2,10 C2,14.418278 5.581722,18 10,18 Z M10,20 C4.4771525,20 0,15.5228475 0,10 C0,4.4771525 4.4771525,0 10,0 C15.5228475,0 20,4.4771525 20,10 C20,15.5228475 15.5228475,20 10,20 Z M8.54075759,5.16045709 C7.87524596,4.73262818 7,5.21046977 7,6.00163557 L7,13.7159213 C7,14.5070871 7.87524596,14.9849287 8.54075759,14.5570998 L14.5407576,10.6999569 C15.1530808,10.3063206 15.1530808,9.4112363 14.5407576,9.01759995 L8.54075759,5.16045709 Z" id="path-1"></path>
</svg>