<svg xmlns="http://www.w3.org/2000/svg" xmlns:xlink="http://www.w3.org/1999/xlink" width="113.4" height="113.4" viewBox="0 0 113.4 113.4"><style></style><g id="Twitter_1_"><defs><path id="SVGID_1_" d="M0 0h113.4v113.4H0z"/></defs><clipPath id="SVGID_2_"><use xlink:href="#SVGID_1_" overflow="visible"/></clipPath><g clip-path="url(#SVGID_2_)"><defs><path id="SVGID_3_" d="M0 0h113.4v113.4H0z"/></defs><clipPath id="SVGID_4_"><use xlink:href="#SVGID_3_" overflow="visible"/></clipPath><path d="M56.7 0C25.4 0 0 25.4 0 56.7c0 31.3 25.4 56.7 56.7 56.7 31.3 0 56.7-25.4 56.7-56.7C113.4 25.4 88 0 56.7 0m30.7 43.4v1.9c0 18.8-14.3 40.5-40.5 40.5-8.1 0-15.6-2.3-21.9-6.4 1.1.1 2.2.2 3.4.2 6.7 0 12.8-2.3 17.7-6.1-6.3-.1-11.5-4.2-13.3-9.9.9.1 1.8.2 2.7.2 1.3 0 2.6-.2 3.8-.5-6.5-1.3-11.4-7.1-11.4-14v-.2c1.9 1.1 4.1 1.7 6.4 1.8-3.8-2.6-6.4-6.9-6.4-11.9 0-2.6.7-5.1 1.9-7.2 7 8.6 17.6 14.3 29.4 14.9-.2-1.1-.3-2.2-.3-3.3 0-7.9 6.3-14.3 14.2-14.3 4.1 0 7.8 1.7 10.4 4.5 3.2-.6 6.3-1.8 9-3.4-1.1 3.3-3.3 6.1-6.3 7.9 2.9-.3 5.6-1.1 8.2-2.2-1.8 3-4.2 5.5-7 7.5" clip-path="url(#SVGID_4_)" fill="#5fa9dd"/></g></g></svg>
              